<mxfile host="65bd71144e">
    <diagram id="vk-PvJlA2NEoVh0RTY-7" name="Page-1">
        <mxGraphModel dx="1134" dy="600" grid="1" gridSize="10" guides="1" tooltips="1" connect="1" arrows="1" fold="1" page="1" pageScale="1" pageWidth="850" pageHeight="1100" background="none" math="0" shadow="0">
            <root>
                <mxCell id="0"/>
                <mxCell id="1" parent="0"/>
                <mxCell id="2" value="" style="ellipse;whiteSpace=wrap;html=1;" parent="1" vertex="1">
                    <mxGeometry x="250" y="160" width="100" height="100" as="geometry"/>
                </mxCell>
                <mxCell id="3" value="" style="ellipse;whiteSpace=wrap;html=1;aspect=fixed;" parent="1" vertex="1">
                    <mxGeometry x="312" y="190" width="25" height="25" as="geometry"/>
                </mxCell>
                <mxCell id="4" value="" style="ellipse;whiteSpace=wrap;html=1;aspect=fixed;" parent="1" vertex="1">
                    <mxGeometry x="262" y="190" width="25" height="25" as="geometry"/>
                </mxCell>
                <mxCell id="5" value="" style="triangle;whiteSpace=wrap;html=1;rotation=90;" parent="1" vertex="1">
                    <mxGeometry x="290" y="215" width="20" height="30" as="geometry"/>
                </mxCell>
                <mxCell id="6" value="" style="ellipse;whiteSpace=wrap;html=1;rotation=90;" parent="1" vertex="1">
                    <mxGeometry x="257" y="266" width="90" height="80" as="geometry"/>
                </mxCell>
                <mxCell id="7" value="" style="triangle;whiteSpace=wrap;html=1;rotation=-30;" parent="1" vertex="1">
                    <mxGeometry x="337" y="250" width="50" height="40" as="geometry"/>
                </mxCell>
                <mxCell id="8" value="" style="triangle;whiteSpace=wrap;html=1;rotation=-140;" parent="1" vertex="1">
                    <mxGeometry x="219" y="245" width="50" height="40" as="geometry"/>
                </mxCell>
            </root>
        </mxGraphModel>
    </diagram>
</mxfile>